<?xml version="1.0" encoding="UTF-8" standalone="no"?>
<svg width="48" height="48" viewBox="0 0 48 48" fill="none" xmlns="http://www.w3.org/2000/svg">
    <rect width="48" height="48" rx="4" fill="#FF538A"/>
    <path d="M18.72 15.3601H29.28C29.808 15.3601 30.24 14.9281 30.24 14.4001V12.4801C30.24 10.8961 28.944 9.6001 27.36 9.6001H20.64C19.056 9.6001 17.76 10.8961 17.76 12.4801V14.4001C17.76 14.9281 18.192 15.3601 18.72 15.3601ZM34.56 12.0001H33.6C33.312 12.0001 33.12 12.1921 33.12 12.4801V14.4001C33.12 16.5121 31.392 18.2401 29.28 18.2401H18.72C16.608 18.2401 14.88 16.5121 14.88 14.4001V12.4801C14.88 12.1921 14.688 12.0001 14.4 12.0001H13.44C11.856 12.0001 10.56 13.2961 10.56 14.8801V35.5201C10.56 37.1041 11.856 38.4001 13.44 38.4001H34.56C36.144 38.4001 37.44 37.1041 37.44 35.5201V14.8801C37.44 13.2961 36.144 12.0001 34.56 12.0001ZM30.864 34.8481L30.24 35.4721C30.096 35.6161 29.808 35.6161 29.616 35.4721L25.728 31.5841C24.624 32.3521 23.232 32.7841 21.696 32.5921C20.5007 32.4225 19.394 31.8657 18.5454 31.0071C17.6967 30.1484 17.153 29.0352 16.9975 27.838C16.8419 26.6408 17.0832 25.4257 17.6842 24.3787C18.2852 23.3317 19.213 22.5106 20.3252 22.0412C21.4375 21.5718 22.673 21.48 23.8424 21.7798C25.0118 22.0796 26.0507 22.7546 26.7999 23.7012C27.5491 24.6479 27.9673 25.814 27.9904 27.0211C28.0136 28.2281 27.6404 29.4094 26.928 30.3841L30.816 34.2721C31.056 34.3681 31.056 34.6561 30.864 34.8481ZM22.512 23.2801C21.5063 23.2801 20.5418 23.6796 19.8306 24.3907C19.1195 25.1019 18.72 26.0664 18.72 27.0721C18.72 28.0778 19.1195 29.0423 19.8306 29.7534C20.5418 30.4646 21.5063 30.8641 22.512 30.8641C23.5177 30.8641 24.4822 30.4646 25.1933 29.7534C25.9045 29.0423 26.304 28.0778 26.304 27.0721C26.304 26.0664 25.9045 25.1019 25.1933 24.3907C24.4822 23.6796 23.5177 23.2801 22.512 23.2801Z"
          fill="white"/>
</svg>
