<svg width="48" height="48" viewBox="0 0 48 48" fill="none" xmlns="http://www.w3.org/2000/svg">
    <rect width="48" height="48" rx="4" fill="#939393"/>
    <path d="M17.28 14.88H30.72C31.104 14.88 31.344 14.448 31.104 14.16L29.52 11.712C29.2785 11.2327 28.9078 10.8304 28.4498 10.5505C27.9918 10.2706 27.4647 10.1243 26.928 10.128H21.072C19.968 10.128 18.96 10.752 18.48 11.712L16.896 14.16C16.656 14.448 16.896 14.88 17.28 14.88ZM24 23.52C21.888 23.52 20.16 25.248 20.16 27.36C20.16 29.472 21.888 31.2 24 31.2C26.112 31.2 27.84 29.472 27.84 27.36C27.84 25.248 26.112 23.52 24 23.52ZM35.52 17.76H12.48C10.896 17.76 9.59998 19.056 9.59998 20.64V34.08C9.59998 35.664 10.896 36.96 12.48 36.96H35.52C37.104 36.96 38.4 35.664 38.4 34.08V20.64C38.4 19.056 37.104 17.76 35.52 17.76ZM24 34.08C20.304 34.08 17.28 31.056 17.28 27.36C17.28 23.664 20.304 20.64 24 20.64C27.696 20.64 30.72 23.664 30.72 27.36C30.72 31.056 27.696 34.08 24 34.08Z" fill="white"/>
</svg>
